<?xml version="1.0" standalone="no"?><!DOCTYPE svg PUBLIC "-//W3C//DTD SVG 1.1//EN" "http://www.w3.org/Graphics/SVG/1.1/DTD/svg11.dtd"><svg xmlns:xlink="http://www.w3.org/1999/xlink" version="1.1" style="font-family:open sans;font-size:12px;" xmlns="http://www.w3.org/2000/svg" width="1040" height="410"><desc>Created with Highcharts 4.1.5</desc><defs><clipPath id="highcharts-64"><rect x="0" y="0" width="828" height="206"></rect></clipPath></defs><rect x="0" y="0" width="1040" height="410" strokeWidth="0" fill="#FFFFFF" class=" highcharts-background"></rect><g class="highcharts-grid" ></g><g class="highcharts-grid" ></g><g class="highcharts-grid" ><path fill="none" d="M 97 337.5 L 925 337.5" stroke="#D8D8D8" stroke-width="1"  opacity="1"></path><path fill="none" d="M 97 268.5 L 925 268.5" stroke="#D8D8D8" stroke-width="1"  opacity="1"></path><path fill="none" d="M 97 200.5 L 925 200.5" stroke="#D8D8D8" stroke-width="1"  opacity="1"></path><path fill="none" d="M 97 130.5 L 925 130.5" stroke="#D8D8D8" stroke-width="1"  opacity="1"></path></g><g class="highcharts-grid" ><path fill="none" d="M 97 337.5 L 925 337.5" stroke="#D8D8D8" stroke-width="1"  opacity="1"></path><path fill="none" d="M 97 268.5 L 925 268.5" stroke="#D8D8D8" stroke-width="1"  opacity="1"></path><path fill="none" d="M 97 200.5 L 925 200.5" stroke="#D8D8D8" stroke-width="1"  opacity="1"></path><path fill="none" d="M 97 130.5 L 925 130.5" stroke="#D8D8D8" stroke-width="1"  opacity="1"></path></g><g class="highcharts-axis" ><path fill="none" d="M 171.5 337 L 171.5 347" stroke="#C0D0E0" stroke-width="1" opacity="1"></path><path fill="none" d="M 247.5 337 L 247.5 347" stroke="#C0D0E0" stroke-width="1" opacity="1"></path><path fill="none" d="M 322.5 337 L 322.5 347" stroke="#C0D0E0" stroke-width="1" opacity="1"></path><path fill="none" d="M 397.5 337 L 397.5 347" stroke="#C0D0E0" stroke-width="1" opacity="1"></path><path fill="none" d="M 472.5 337 L 472.5 347" stroke="#C0D0E0" stroke-width="1" opacity="1"></path><path fill="none" d="M 548.5 337 L 548.5 347" stroke="#C0D0E0" stroke-width="1" opacity="1"></path><path fill="none" d="M 623.5 337 L 623.5 347" stroke="#C0D0E0" stroke-width="1" opacity="1"></path><path fill="none" d="M 698.5 337 L 698.5 347" stroke="#C0D0E0" stroke-width="1" opacity="1"></path><path fill="none" d="M 773.5 337 L 773.5 347" stroke="#C0D0E0" stroke-width="1" opacity="1"></path><path fill="none" d="M 849.5 337 L 849.5 347" stroke="#C0D0E0" stroke-width="1" opacity="1"></path><path fill="none" d="M 924.5 337 L 924.5 347" stroke="#C0D0E0" stroke-width="1" opacity="1"></path><path fill="none" d="M 96.5 337 L 96.5 347" stroke="#C0D0E0" stroke-width="1" opacity="1"></path><path fill="none" d="M 97 337.5 L 925 337.5" stroke="#C0D0E0" stroke-width="1"  visibility="visible"></path></g><g class="highcharts-axis" ><path fill="none" d="M 171.5 131 L 171.5 121" stroke="#C0D0E0" stroke-width="1" opacity="1"></path><path fill="none" d="M 247.5 131 L 247.5 121" stroke="#C0D0E0" stroke-width="1" opacity="1"></path><path fill="none" d="M 322.5 131 L 322.5 121" stroke="#C0D0E0" stroke-width="1" opacity="1"></path><path fill="none" d="M 397.5 131 L 397.5 121" stroke="#C0D0E0" stroke-width="1" opacity="1"></path><path fill="none" d="M 472.5 131 L 472.5 121" stroke="#C0D0E0" stroke-width="1" opacity="1"></path><path fill="none" d="M 548.5 131 L 548.5 121" stroke="#C0D0E0" stroke-width="1" opacity="1"></path><path fill="none" d="M 623.5 131 L 623.5 121" stroke="#C0D0E0" stroke-width="1" opacity="1"></path><path fill="none" d="M 698.5 131 L 698.5 121" stroke="#C0D0E0" stroke-width="1" opacity="1"></path><path fill="none" d="M 773.5 131 L 773.5 121" stroke="#C0D0E0" stroke-width="1" opacity="1"></path><path fill="none" d="M 849.5 131 L 849.5 121" stroke="#C0D0E0" stroke-width="1" opacity="1"></path><path fill="none" d="M 924.5 131 L 924.5 121" stroke="#C0D0E0" stroke-width="1" opacity="1"></path><path fill="none" d="M 96.5 131 L 96.5 121" stroke="#C0D0E0" stroke-width="1" opacity="1"></path><path fill="none" d="M 97 130.5 L 925 130.5" stroke="#C0D0E0" stroke-width="1"  visibility="visible"></path></g><g class="highcharts-axis" ><text x="1015.703125"  text-anchor="middle" transform="translate(0,0) rotate(90 1015.703125 234)" class=" highcharts-yaxis-title" style="color:#000000;fill:#000000;" visibility="visible" y="234"><tspan>Hanging suicides</tspan></text></g><g class="highcharts-axis" ><text x="24.015625"  text-anchor="middle" transform="translate(0,0) rotate(270 24.015625 234)" class=" highcharts-yaxis-title" style="color:#ba0f27;fill:#ba0f27;" visibility="visible" y="234"><tspan>US spending on science</tspan></text></g><g class="highcharts-series-group" ><g class="highcharts-series" visibility="visible"  transform="translate(97,131) scale(1 1)" clip-path="url(#highcharts-64)"><path fill="none" d="M 37.63636363636363 157.00633333333332 C 37.63636363636363 157.00633333333332 82.8 153.33953333333335 112.9090909090909 148.04533333333333 C 143.0181818181818 142.75113333333334 158.07272727272726 135.8501333333333 188.18181818181816 130.5353333333333 C 218.2909090909091 125.22053333333331 233.34545454545452 124.47206666666668 263.45454545454544 121.47133333333333 C 293.5636363636363 118.4706 308.6181818181818 121.47133333333333 338.7272727272727 115.53166666666667 C 368.8363636363636 109.592 383.890909090909 91.464 413.99999999999994 91.464 C 444.1090909090908 91.464 459.16363636363633 94.48533333333333 489.27272727272725 94.48533333333333 C 519.3818181818182 94.48533333333333 534.4363636363636 92.41159999999998 564.5454545454545 86.14233333333333 C 594.6545454545454 79.87306666666666 609.7090909090908 70.6030666666667 639.8181818181818 63.13900000000001 C 669.9272727272726 55.67493333333336 684.9818181818181 54.583133333333336 715.090909090909 48.822 C 745.1999999999999 43.06086666666667 790.3636363636363 34.33333333333334 790.3636363636363 34.33333333333334" stroke="#000000" stroke-width="2"  stroke-linejoin="round" stroke-linecap="round"></path></g><g class="highcharts-markers" visibility="visible"  transform="translate(97,131) scale(1 1)" clip-path="none"><path fill="#000000" d="M 790 30.333333333333343 C 795.328 30.333333333333343 795.328 38.33333333333334 790 38.33333333333334 C 784.672 38.33333333333334 784.672 30.333333333333343 790 30.333333333333343 Z"></path><path fill="#000000" d="M 715 44.822 C 720.328 44.822 720.328 52.822 715 52.822 C 709.672 52.822 709.672 44.822 715 44.822 Z"></path><path fill="#000000" d="M 639 59.13900000000001 C 644.328 59.13900000000001 644.328 67.13900000000001 639 67.13900000000001 C 633.672 67.13900000000001 633.672 59.13900000000001 639 59.13900000000001 Z"></path><path fill="#000000" d="M 564 82.14233333333333 C 569.328 82.14233333333333 569.328 90.14233333333333 564 90.14233333333333 C 558.672 90.14233333333333 558.672 82.14233333333333 564 82.14233333333333 Z"></path><path fill="#000000" d="M 489 90.48533333333333 C 494.328 90.48533333333333 494.328 98.48533333333333 489 98.48533333333333 C 483.672 98.48533333333333 483.672 90.48533333333333 489 90.48533333333333 Z"></path><path fill="#000000" d="M 413 87.464 C 418.328 87.464 418.328 95.464 413 95.464 C 407.672 95.464 407.672 87.464 413 87.464 Z"></path><path fill="#000000" d="M 338 111.53166666666667 C 343.328 111.53166666666667 343.328 119.53166666666667 338 119.53166666666667 C 332.672 119.53166666666667 332.672 111.53166666666667 338 111.53166666666667 Z"></path><path fill="#000000" d="M 263 117.47133333333333 C 268.328 117.47133333333333 268.328 125.47133333333333 263 125.47133333333333 C 257.672 125.47133333333333 257.672 117.47133333333333 263 117.47133333333333 Z"></path><path fill="#000000" d="M 188 126.53533333333331 C 193.328 126.53533333333331 193.328 134.5353333333333 188 134.5353333333333 C 182.672 134.5353333333333 182.672 126.53533333333331 188 126.53533333333331 Z"></path><path fill="#000000" d="M 112 144.04533333333333 C 117.328 144.04533333333333 117.328 152.04533333333333 112 152.04533333333333 C 106.672 152.04533333333333 106.672 144.04533333333333 112 144.04533333333333 Z"></path><path fill="#000000" d="M 37 153.00633333333332 C 42.328 153.00633333333332 42.328 161.00633333333332 37 161.00633333333332 C 31.672 161.00633333333332 31.672 153.00633333333332 37 153.00633333333332 Z"></path></g><g class="highcharts-series" visibility="visible"  transform="translate(97,131) scale(1 1)" clip-path="url(#highcharts-64)"><path fill="none" d="M 37.63636363636363 163.71506666666664 C 37.63636363636363 163.71506666666664 82.8 161.24032 112.9090909090909 156.64239999999998 C 143.0181818181818 152.04448 158.07272727272726 146.60333333333332 188.18181818181816 140.72546666666665 C 218.2909090909091 134.84759999999997 233.34545454545452 128.58519999999993 263.45454545454544 127.25306666666664 C 293.5636363636363 125.92093333333335 308.6181818181818 127.25306666666664 338.7272727272727 125.92093333333335 C 368.8363636363636 124.58880000000006 383.890909090909 103.3323466666667 413.99999999999994 95.73506666666667 C 444.1090909090908 88.13778666666667 459.16363636363633 87.93453333333332 489.27272727272725 87.93453333333332 C 519.3818181818182 87.93453333333332 534.4363636363636 88.11306666666668 564.5454545454545 88.11306666666668 C 594.6545454545454 88.11306666666668 609.7090909090908 72.84709333333339 639.8181818181818 61.456666666666706 C 669.9272727272726 50.066240000000064 684.9818181818181 41.93885333333334 715.090909090909 31.160933333333332 C 745.1999999999999 20.383013333333324 790.3636363636363 7.567066666666648 790.3636363636363 7.567066666666648" stroke="#ba0f27" stroke-width="2"  stroke-linejoin="round" stroke-linecap="round"></path></g><g class="highcharts-markers" visibility="visible"  transform="translate(97,131) scale(1 1)" clip-path="none"><path fill="#ba0f27" d="M 790 3.5670666666666477 L 794 7.567066666666648 790 11.567066666666648 786 7.567066666666648 Z"></path><path fill="#ba0f27" d="M 715 27.160933333333332 L 719 31.160933333333332 715 35.16093333333333 711 31.160933333333332 Z"></path><path fill="#ba0f27" d="M 639 57.456666666666706 L 643 61.456666666666706 639 65.4566666666667 635 61.456666666666706 Z"></path><path fill="#ba0f27" d="M 564 84.11306666666668 L 568 88.11306666666668 564 92.11306666666668 560 88.11306666666668 Z"></path><path fill="#ba0f27" d="M 489 83.93453333333332 L 493 87.93453333333332 489 91.93453333333332 485 87.93453333333332 Z"></path><path fill="#ba0f27" d="M 413 91.73506666666667 L 417 95.73506666666667 413 99.73506666666667 409 95.73506666666667 Z"></path><path fill="#ba0f27" d="M 338 121.92093333333335 L 342 125.92093333333335 338 129.92093333333335 334 125.92093333333335 Z"></path><path fill="#ba0f27" d="M 263 123.25306666666664 L 267 127.25306666666664 263 131.25306666666665 259 127.25306666666664 Z"></path><path fill="#ba0f27" d="M 188 136.72546666666665 L 192 140.72546666666665 188 144.72546666666665 184 140.72546666666665 Z"></path><path fill="#ba0f27" d="M 112 152.64239999999998 L 116 156.64239999999998 112 160.64239999999998 108 156.64239999999998 Z"></path><path fill="#ba0f27" d="M 37 159.71506666666664 L 41 163.71506666666664 37 167.71506666666664 33 163.71506666666664 Z"></path></g></g><text x="520" text-anchor="middle" class="highcharts-title"  style="color:#777;font-size:18px;fill:#777;width:976px;" y="24"><tspan style="fill:#ba0f27;font-size:24px;font-weight:bold;font-family: 'lora'">US spending on science, space, and technology</tspan><tspan style="font-family: 'lora'" x="520" dy="21"> correlates with </tspan><tspan style="fill:#000000;font-size:24px;font-weight:bold;font-family: 'lora'" x="520" dy="29">Suicides by hanging, strangulation and suffocation</tspan></text><g class="highcharts-legend"  transform="translate(378,370)"><g ><g><g class="highcharts-legend-item"  transform="translate(8,3)"><path fill="none" d="M 0 11 L 16 11" stroke="#000000" stroke-width="2"></path><path fill="#000000" d="M 8 7 C 13.328 7 13.328 15 8 15 C 2.6719999999999997 15 2.6719999999999997 7 8 7 Z"></path><text x="21" style="color:#333333;font-size:12px;font-weight:bold;cursor:pointer;fill:#333333;" text-anchor="start"  y="15"><tspan>Hanging suicides</tspan></text></g><g class="highcharts-legend-item"  transform="translate(136.03125,3)"><path fill="none" d="M 0 11 L 16 11" stroke="#ba0f27" stroke-width="2"></path><path fill="#ba0f27" d="M 8 7 L 12 11 8 15 4 11 Z"></path><text x="21" y="15" style="color:#333333;font-size:12px;font-weight:bold;cursor:pointer;fill:#333333;" text-anchor="start" ><tspan>US spending on science</tspan></text></g></g></g></g><g class="highcharts-axis-labels highcharts-xaxis-labels" ><text x="134.63636363636363" style="color:#000000;cursor:default;font-size:11px;fill:#000000;width:75.81818181818181;text-overflow:ellipsis;" text-anchor="middle" transform="translate(0,0)" y="356" opacity="1"><tspan>1999</tspan></text><text x="209.9090909090909" style="color:#000000;cursor:default;font-size:11px;fill:#000000;width:75.81818181818181;text-overflow:ellipsis;" text-anchor="middle" transform="translate(0,0)" y="356" opacity="1"><tspan>2000</tspan></text><text x="285.18181818181813" style="color:#000000;cursor:default;font-size:11px;fill:#000000;width:75.81818181818181;text-overflow:ellipsis;" text-anchor="middle" transform="translate(0,0)" y="356" opacity="1"><tspan>2001</tspan></text><text x="360.45454545454544" style="color:#000000;cursor:default;font-size:11px;fill:#000000;width:75.81818181818181;text-overflow:ellipsis;" text-anchor="middle" transform="translate(0,0)" y="356" opacity="1"><tspan>2002</tspan></text><text x="435.7272727272727" style="color:#000000;cursor:default;font-size:11px;fill:#000000;width:75.81818181818181;text-overflow:ellipsis;" text-anchor="middle" transform="translate(0,0)" y="356" opacity="1"><tspan>2003</tspan></text><text x="510.9999999999999" style="color:#000000;cursor:default;font-size:11px;fill:#000000;width:75.81818181818181;text-overflow:ellipsis;" text-anchor="middle" transform="translate(0,0)" y="356" opacity="1"><tspan>2004</tspan></text><text x="586.2727272727273" style="color:#000000;cursor:default;font-size:11px;fill:#000000;width:75.81818181818181;text-overflow:ellipsis;" text-anchor="middle" transform="translate(0,0)" y="356" opacity="1"><tspan>2005</tspan></text><text x="661.5454545454545" style="color:#000000;cursor:default;font-size:11px;fill:#000000;width:75.81818181818181;text-overflow:ellipsis;" text-anchor="middle" transform="translate(0,0)" y="356" opacity="1"><tspan>2006</tspan></text><text x="736.8181818181818" style="color:#000000;cursor:default;font-size:11px;fill:#000000;width:75.81818181818181;text-overflow:ellipsis;" text-anchor="middle" transform="translate(0,0)" y="356" opacity="1"><tspan>2007</tspan></text><text x="812.090909090909" style="color:#000000;cursor:default;font-size:11px;fill:#000000;width:75.81818181818181;text-overflow:ellipsis;" text-anchor="middle" transform="translate(0,0)" y="356" opacity="1"><tspan>2008</tspan></text><text x="887.3636363636363" style="color:#000000;cursor:default;font-size:11px;fill:#000000;width:75.81818181818181;text-overflow:ellipsis;" text-anchor="middle" transform="translate(0,0)" y="356" opacity="1"><tspan>2009</tspan></text></g><g class="highcharts-axis-labels highcharts-xaxis-labels" ><text x="134.63636363636363" style="color:#ba0f27;cursor:default;font-size:11px;fill:#ba0f27;width:75.81818181818181;text-overflow:ellipsis;" text-anchor="middle" transform="translate(0,0)" y="116" opacity="1"><tspan>1999</tspan></text><text x="209.9090909090909" style="color:#ba0f27;cursor:default;font-size:11px;fill:#ba0f27;width:75.81818181818181;text-overflow:ellipsis;" text-anchor="middle" transform="translate(0,0)" y="116" opacity="1"><tspan>2000</tspan></text><text x="285.18181818181813" style="color:#ba0f27;cursor:default;font-size:11px;fill:#ba0f27;width:75.81818181818181;text-overflow:ellipsis;" text-anchor="middle" transform="translate(0,0)" y="116" opacity="1"><tspan>2001</tspan></text><text x="360.45454545454544" style="color:#ba0f27;cursor:default;font-size:11px;fill:#ba0f27;width:75.81818181818181;text-overflow:ellipsis;" text-anchor="middle" transform="translate(0,0)" y="116" opacity="1"><tspan>2002</tspan></text><text x="435.7272727272727" style="color:#ba0f27;cursor:default;font-size:11px;fill:#ba0f27;width:75.81818181818181;text-overflow:ellipsis;" text-anchor="middle" transform="translate(0,0)" y="116" opacity="1"><tspan>2003</tspan></text><text x="510.9999999999999" style="color:#ba0f27;cursor:default;font-size:11px;fill:#ba0f27;width:75.81818181818181;text-overflow:ellipsis;" text-anchor="middle" transform="translate(0,0)" y="116" opacity="1"><tspan>2004</tspan></text><text x="586.2727272727273" style="color:#ba0f27;cursor:default;font-size:11px;fill:#ba0f27;width:75.81818181818181;text-overflow:ellipsis;" text-anchor="middle" transform="translate(0,0)" y="116" opacity="1"><tspan>2005</tspan></text><text x="661.5454545454545" style="color:#ba0f27;cursor:default;font-size:11px;fill:#ba0f27;width:75.81818181818181;text-overflow:ellipsis;" text-anchor="middle" transform="translate(0,0)" y="116" opacity="1"><tspan>2006</tspan></text><text x="736.8181818181818" style="color:#ba0f27;cursor:default;font-size:11px;fill:#ba0f27;width:75.81818181818181;text-overflow:ellipsis;" text-anchor="middle" transform="translate(0,0)" y="116" opacity="1"><tspan>2007</tspan></text><text x="812.090909090909" style="color:#ba0f27;cursor:default;font-size:11px;fill:#ba0f27;width:75.81818181818181;text-overflow:ellipsis;" text-anchor="middle" transform="translate(0,0)" y="116" opacity="1"><tspan>2008</tspan></text><text x="887.3636363636363" style="color:#ba0f27;cursor:default;font-size:11px;fill:#ba0f27;width:75.81818181818181;text-overflow:ellipsis;" text-anchor="middle" transform="translate(0,0)" y="116" opacity="1"><tspan>2009</tspan></text></g><g class="highcharts-axis-labels highcharts-yaxis-labels" ><text x="940" style="color:#000000;cursor:default;font-size:11px;fill:#000000;width:333px;text-overflow:clip;" text-anchor="start" transform="translate(0,0)" y="273" opacity="1"><tspan>6000 suicides</tspan></text><text x="940" style="color:#000000;cursor:default;font-size:11px;fill:#000000;width:333px;text-overflow:clip;" text-anchor="start" transform="translate(0,0)" y="204" opacity="1"><tspan>8000 suicides</tspan></text><text x="940" style="color:#000000;cursor:default;font-size:11px;fill:#000000;width:333px;text-overflow:clip;" text-anchor="start" transform="translate(0,0)" y="342" opacity="1"><tspan>4000 suicides</tspan></text><text x="940" style="color:#000000;cursor:default;font-size:11px;fill:#000000;width:333px;text-overflow:clip;" text-anchor="start" transform="translate(0,0)" y="136" opacity="1"><tspan>10000 suicides</tspan></text></g><g class="highcharts-axis-labels highcharts-yaxis-labels" ><text x="82" style="color:#ba0f27;cursor:default;font-size:11px;fill:#ba0f27;width:333px;text-overflow:clip;" text-anchor="end" transform="translate(0,0)" y="342" opacity="1"><tspan>$15 billion</tspan></text><text x="82" style="color:#ba0f27;cursor:default;font-size:11px;fill:#ba0f27;width:333px;text-overflow:clip;" text-anchor="end" transform="translate(0,0)" y="273" opacity="1"><tspan>$20 billion</tspan></text><text x="82" style="color:#ba0f27;cursor:default;font-size:11px;fill:#ba0f27;width:333px;text-overflow:clip;" text-anchor="end" transform="translate(0,0)" y="204" opacity="1"><tspan>$25 billion</tspan></text><text x="82" style="color:#ba0f27;cursor:default;font-size:11px;fill:#ba0f27;width:333px;text-overflow:clip;" text-anchor="end" transform="translate(0,0)" y="136" opacity="1"><tspan>$30 billion</tspan></text></g><g class="highcharts-tooltip"  style="cursor:default;padding:0;white-space:nowrap;" transform="translate(0,-9999)"><path fill="none" d="M 3 0 L 13 0 C 16 0 16 0 16 3 L 16 13 C 16 16 16 16 13 16 L 3 16 C 0 16 0 16 0 13 L 0 3 C 0 0 0 0 3 0"  stroke="black" stroke-opacity="0.049999999999999996" stroke-width="5" transform="translate(1, 1)"></path><path fill="none" d="M 3 0 L 13 0 C 16 0 16 0 16 3 L 16 13 C 16 16 16 16 13 16 L 3 16 C 0 16 0 16 0 13 L 0 3 C 0 0 0 0 3 0"  stroke="black" stroke-opacity="0.09999999999999999" stroke-width="3" transform="translate(1, 1)"></path><path fill="none" d="M 3 0 L 13 0 C 16 0 16 0 16 3 L 16 13 C 16 16 16 16 13 16 L 3 16 C 0 16 0 16 0 13 L 0 3 C 0 0 0 0 3 0"  stroke="black" stroke-opacity="0.15" stroke-width="1" transform="translate(1, 1)"></path><path fill="rgb(249, 249, 249)" fill-opacity=" .85" d="M 3 0 L 13 0 C 16 0 16 0 16 3 L 16 13 C 16 16 16 16 13 16 L 3 16 C 0 16 0 16 0 13 L 0 3 C 0 0 0 0 3 0"></path><text x="8"  style="font-size:12px;color:#333333;fill:#333333;" transform="translate(0,20)"></text></g><text x="1030" text-anchor="end"  style="cursor:pointer;color:#909090;font-size:9px;fill:#909090;" y="405">tylervigen.com</text></svg>